HIERARCHY
ROOT Hips
{
	OFFSET 0.000000 0.000000 0.000000
	CHANNELS 6 Xposition Yposition Zposition Yrotation Xrotation Zrotation
	JOINT Chest
	{
		OFFSET 0.000000 -0.009281 11.569106
		CHANNELS 3 Yrotation Xrotation Zrotation
		JOINT Chest2
		{
			OFFSET -0.000000 0.016865 9.269641
			CHANNELS 3 Yrotation Xrotation Zrotation
			JOINT Chest3
			{
				OFFSET -0.000000 0.000001 8.374491
				CHANNELS 3 Yrotation Xrotation Zrotation
				JOINT Chest4
				{
					OFFSET -0.000000 0.000001 8.374493
					CHANNELS 3 Yrotation Xrotation Zrotation
					JOINT Neck
					{
						OFFSET -0.000000 0.000002 12.152554
						CHANNELS 3 Yrotation Xrotation Zrotation
						JOINT Head
						{
							OFFSET -0.000000 0.040101 7.802319
							CHANNELS 3 Yrotation Xrotation Zrotation
							End Site
							{
								OFFSET -0.000000 0.020947 14.853096
							}
						}
					}
					JOINT RightCollar
					{
						OFFSET 2.894404 0.000001 6.791374
						CHANNELS 3 Yrotation Xrotation Zrotation
						JOINT RightShoulder
						{
							OFFSET 13.574684 0.000001 0.000000
							CHANNELS 3 Yrotation Xrotation Zrotation
							JOINT RightElbow
							{
								OFFSET 23.923903 0.000002 0.000000
								CHANNELS 3 Yrotation Xrotation Zrotation
								JOINT RightWrist
								{
									OFFSET 19.846718 0.012767 0.000000
									CHANNELS 3 Yrotation Xrotation Zrotation
									End Site
									{
										OFFSET 14.973145 0.000001 0.000000
									}
								}
							}
						}
					}
					JOINT LeftCollar
					{
						OFFSET -2.894404 0.000001 6.791374
						CHANNELS 3 Yrotation Xrotation Zrotation
						JOINT LeftShoulder
						{
							OFFSET -13.574684 -0.000001 0.000000
							CHANNELS 3 Yrotation Xrotation Zrotation
							JOINT LeftElbow
							{
								OFFSET -23.923903 -0.000002 0.000000
								CHANNELS 3 Yrotation Xrotation Zrotation
								JOINT LeftWrist
								{
									OFFSET -19.846718 0.012763 0.000000
									CHANNELS 3 Yrotation Xrotation Zrotation
									End Site
									{
										OFFSET -14.973145 -0.000001 0.000000
									}
								}
							}
						}
					}
				}
			}
		}
	}
	JOINT RightHip
	{
		OFFSET 9.469263 0.004643 0.045487
		CHANNELS 3 Yrotation Xrotation Zrotation
		JOINT RightKnee
		{
			OFFSET 0.000000 0.002661 -40.478676
			CHANNELS 3 Yrotation Xrotation Zrotation
			JOINT RightAnkle
			{
				OFFSET 0.000000 0.049106 -35.224068
				CHANNELS 3 Yrotation Xrotation Zrotation
				JOINT RightToe
				{
					OFFSET -0.000001 12.539529 -6.151390
					CHANNELS 3 Yrotation Xrotation Zrotation
					End Site
					{
						OFFSET -0.000001 5.044994 -1.291870
					}
				}
			}
		}
	}
	JOINT LeftHip
	{
		OFFSET -9.469263 0.004641 0.045487
		CHANNELS 3 Yrotation Xrotation Zrotation
		JOINT LeftKnee
		{
			OFFSET 0.000000 0.002661 -40.478676
			CHANNELS 3 Yrotation Xrotation Zrotation
			JOINT LeftAnkle
			{
				OFFSET 0.000000 0.049106 -35.224068
				CHANNELS 3 Yrotation Xrotation Zrotation
				JOINT LeftToe
				{
					OFFSET -0.000001 12.539529 -6.151390
					CHANNELS 3 Yrotation Xrotation Zrotation
					End Site
					{
						OFFSET -0.000001 5.044994 -1.291870
					}
				}
			}
		}
	}
}
MOTION
Frames: 7
Frame Time: 0.016667
8.942211 4.993511 83.137779 -11.219831 -4.318621 -115.241233 0.624725 -4.140765 -0.733946 0.282692 -1.839904 -0.274938 0.282691 -1.839905 -0.274941 0.211172 -1.380056 -0.205336 -2.293249 -21.151293 2.629508 -3.394720 -3.072457 4.102662 2.368212 1.250557 -2.504488 67.240214 -13.244229 48.576906 19.318109 -14.233197 45.878473 3.182085 -10.429280 -1.947594 -10.735222 -0.555243 -9.711382 -74.522084 2.231674 -38.131365 -42.213397 28.697538 -36.071032 -11.278524 39.850370 -1.272235 -1.501481 -11.289295 0.249358 0.590965 -5.257448 -1.752299 0.424552 4.710203 5.191719 -0.109975 -0.126888 0.054676 -1.437109 -12.272704 -0.094436 0.531417 -5.660133 4.875386 0.603677 4.634817 -0.848722 0.009300 -0.052420 -0.047319 
8.960582 4.946559 83.136902 -11.073806 -4.293439 -115.200143 0.601300 -4.067827 -0.707853 0.272816 -1.807957 -0.258743 0.272816 -1.807957 -0.258745 0.203829 -1.356085 -0.193234 -2.178673 -21.168517 2.570281 -3.204439 -3.106322 4.028769 2.352527 1.240328 -2.331648 67.017447 -13.029800 50.088871 18.859189 -13.273507 46.586378 5.294239 -11.557017 -5.098340 -10.750933 -0.559456 -9.716249 -74.495289 2.060742 -38.180768 -42.057580 28.841953 -35.974029 -11.292876 39.848816 -1.258842 -1.416693 -11.351625 0.147175 0.552933 -4.903552 -1.782403 0.483711 4.582462 5.295089 -0.127443 -0.132255 0.050170 -1.397021 -12.238291 -0.067380 0.601419 -5.487485 4.852399 0.527196 4.607528 -0.847967 0.023286 -0.072808 -0.040978 
8.977390 4.899474 83.134995 -10.914893 -4.259422 -115.135707 0.579069 -3.992474 -0.682028 0.264002 -1.775405 -0.243288 0.264002 -1.775405 -0.243287 0.197279 -1.331660 -0.181683 -2.062729 -21.187467 2.504964 -3.013476 -3.143403 3.944214 2.341312 1.215116 -2.147634 66.911293 -12.772485 51.573734 18.344278 -12.326860 47.266302 7.142625 -12.449443 -7.904849 -10.783355 -0.543468 -9.722052 -74.515185 1.893709 -38.222708 -41.916666 28.968717 -35.873103 -11.309591 39.850558 -1.233758 -1.328768 -11.392164 0.069618 0.528979 -4.564967 -1.845443 0.534830 4.462572 5.338850 -0.145254 -0.135817 0.041505 -1.355290 -12.197931 -0.034337 0.675585 -5.290189 4.810466 0.447608 4.578640 -0.845845 0.037178 -0.098930 -0.033893 
8.991580 4.851532 83.132484 -10.755883 -4.216829 -115.050520 0.554617 -3.906330 -0.658447 0.252120 -1.738216 -0.230307 0.252120 -1.738215 -0.230308 0.188420 -1.303758 -0.172000 -1.945246 -21.221814 2.439963 -2.819908 -3.209072 3.860748 2.314255 1.192490 -2.027651 66.969253 -12.548447 52.976617 17.787472 -11.510290 47.916420 8.419752 -13.043296 -10.042375 -10.810645 -0.566337 -9.735901 -74.566958 1.765669 -38.259947 -41.803056 29.052104 -35.775441 -11.351424 39.825498 -1.234559 -1.249541 -11.425103 0.017870 0.510109 -4.239621 -1.928240 0.584916 4.349500 5.382067 -0.158467 -0.136798 0.033050 -1.312439 -12.165620 0.031247 0.749751 -5.062719 4.740244 0.360678 4.542934 -0.877317 0.054201 -0.126999 -0.026781 
9.005277 4.801418 83.129662 -10.606280 -4.168836 -114.946756 0.527447 -3.828642 -0.646315 0.237011 -1.704359 -0.222828 0.237012 -1.704358 -0.222828 0.177124 -1.278355 -0.166443 -1.830279 -21.257572 2.382031 -2.628876 -3.277293 3.789305 2.275724 1.192142 -1.906199 67.164167 -12.358931 54.242299 17.119564 -10.854380 48.642545 8.944272 -13.550120 -11.255017 -10.838725 -0.590081 -9.743861 -74.609203 1.645548 -38.291919 -41.698117 29.092504 -35.690249 -11.419035 39.816943 -1.221593 -1.166375 -11.458411 -0.004483 0.482826 -3.931400 -2.035790 0.629205 4.244298 5.422541 -0.164993 -0.134854 0.023475 -1.276103 -12.150619 0.122033 0.834091 -4.808210 4.662870 0.255996 4.498103 -0.938478 0.076478 -0.152921 -0.017452 
9.019145 4.749010 83.126289 -10.464799 -4.114443 -114.823622 0.490788 -3.766544 -0.623041 0.216555 -1.677085 -0.210722 0.216555 -1.677084 -0.210723 0.161826 -1.257888 -0.157436 -1.704690 -21.287063 2.313187 -2.421634 -3.334022 3.701039 2.239632 1.142450 -1.816749 67.435175 -12.223362 55.414517 16.309495 -10.250760 49.513073 8.708956 -14.081879 -11.579639 -10.846680 -0.609810 -9.779994 -74.609551 1.493396 -38.338514 -41.611906 29.144687 -35.631686 -11.510343 39.777270 -1.189548 -1.079851 -11.493291 -0.011981 0.442824 -3.636794 -2.162553 0.667086 4.146667 5.433165 -0.162567 -0.131007 0.014737 -1.245049 -12.149011 0.216810 0.926512 -4.531926 4.590192 0.132993 4.445908 -1.022423 0.102548 -0.176342 -0.009227 
9.034151 4.697487 83.121841 -10.320546 -4.051635 -114.692031 0.458405 -3.702700 -0.588855 0.198579 -1.648658 -0.193957 0.198579 -1.648659 -0.193961 0.148401 -1.236557 -0.144923 -1.581966 -21.316293 2.231974 -2.223151 -3.390175 3.589447 2.193408 1.034522 -1.741644 67.711572 -12.191883 56.486518 15.279497 -9.655668 50.511213 7.759290 -14.700544 -11.135336 -10.867345 -0.639687 -9.832627 -74.582524 1.313277 -38.395044 -41.546637 29.222469 -35.602235 -11.565722 39.719589 -1.129313 -0.995524 -11.507539 -0.011918 0.403177 -3.374357 -2.299121 0.693424 4.064159 5.401943 -0.154940 -0.126196 0.005416 -1.219224 -12.149758 0.306482 1.016732 -4.236527 4.519445 0.005262 4.387631 -1.114969 0.129201 -0.196834 -0.001875 
